<svg xmlns="http://www.w3.org/2000/svg" width="64" height="64" viewBox="0 0 64 64">
  <g id="Page-1" fill="none" fill-rule="evenodd">
    <path id="Combined-Shape" fill="#B31A25" d="M29.7190354,63.8618146 C13.110441,62.6921273 0,48.8480448 0,31.9418548 C0,14.9218635 13.2875365,1.00534269 30.054902,1.59296187e-13 C28.732878,3.04695747 28,6.4088197 28,9.94185476 C28,13.1352824 28.5999869,16.248797 29.753787,19.1570891 C30.1611158,20.1838106 31.3236433,20.6859275 32.3503648,20.2785987 C33.3770863,19.8712698 33.8792032,18.7087423 33.4718743,17.6820209 C32.5035712,15.2412961 32,12.6281119 32,9.94185476 C32,6.35979817 32.8968532,2.98721287 34.4782606,0.0363979954 C50.9932674,1.30135953 64,15.1026646 64,31.9418548 C64,48.9070295 50.7979164,62.7886923 34.1069982,63.8735943 C35.2991095,60.9572353 35.9561732,57.7653947 35.9561732,54.4200887 C35.9561732,51.2266611 35.3561863,48.1131465 34.2023862,45.2048543 C33.7950574,44.1781329 32.6325299,43.6760159 31.6058084,44.0833448 C30.5790869,44.4906736 30.07697,45.6532011 30.4842989,46.6799226 C31.452602,49.1206474 31.9561732,51.7338315 31.9561732,54.4200887 C31.9561732,57.8158735 31.1501699,61.0234062 29.7190354,63.8618146 Z M32,40.9418548 C36.9705627,40.9418548 41,36.9124175 41,31.9418548 C41,26.971292 36.9705627,22.9418548 32,22.9418548 C27.0294373,22.9418548 23,26.971292 23,31.9418548 C23,36.9124175 27.0294373,40.9418548 32,40.9418548 Z"/>
  </g>
</svg>
