<svg xmlns="http://www.w3.org/2000/svg" width="512" height="370" viewBox="0 0 512 370">
  <g id="Page-1" fill="none" fill-rule="evenodd">
    <g id="001-size" fill="#000" fill-rule="nonzero">
      <path id="Shape" d="M496.8,0.301 L15,0.301 C6.7,0.301 0,7.001 0,15.301 L0,354.401 C0,362.701 6.7,369.401 15,369.401 L496.7,369.401 C505,369.401 511.7,362.701 511.7,354.401 L511.7,15.301 C511.8,7.101 505,0.301 496.8,0.301 Z M240.9,339.401 L30,339.401 L30,30.301 L240.9,30.301 L240.9,339.401 Z M361.3,339.501 L270.9,339.501 L270.9,199.901 L361.3,199.901 L361.3,339.501 Z M421.5,339.501 L391.3,339.501 L391.3,284.701 L421.5,284.701 L421.5,339.501 Z M481.7,339.501 L451.5,339.501 L451.5,327.101 L481.7,327.101 L481.7,339.501 Z M481.7,297.101 L451.5,297.101 L451.5,284.701 L481.7,284.701 L481.7,297.101 Z M481.8,254.701 L391.4,254.701 L391.4,199.901 L481.8,199.901 L481.8,254.701 Z M481.8,169.901 L270.9,169.901 L270.9,30.301 L481.8,30.301 L481.8,169.901 Z"/>
    </g>
  </g>
</svg>
