<svg xmlns="http://www.w3.org/2000/svg" width="512" height="458" viewBox="0 0 512 458">
  <g id="Page-1" fill="none" fill-rule="evenodd">
    <g id="002-print" fill="#000" fill-rule="nonzero">
      <path id="Shape" d="M497,0.35 L15,0.35 C6.7,0.35 0,7.05 0,15.35 L0,148.55 L0,442.65 C0,450.95 6.7,457.65 15,457.65 C23.3,457.65 30,450.95 30,442.65 L30,328.85 L85.4,328.85 L85.4,381.35 C85.4,389.65 92.1,396.35 100.4,396.35 L411.5,396.35 C419.8,396.35 426.5,389.65 426.5,381.35 L426.5,328.55 L482,328.55 L482,442.55 C482,450.85 488.7,457.55 497,457.55 C505.3,457.55 512,450.85 512,442.55 L512,148.55 L512,15.35 C512,7.05 505.3,0.35 497,0.35 Z M85.4,298.85 L30,298.85 L30,279.55 L85.4,279.55 L85.4,298.85 Z M85.4,249.55 L30,249.55 L30,163.55 L85.4,163.55 L85.4,249.55 Z M396.6,366.35 L396.5,366.35 L115.5,366.35 L115.5,86.95 L396.6,86.95 L396.6,366.35 Z M482,298.55 L426.5,298.55 L426.5,279.45 L482,279.45 L482,298.55 Z M482,249.55 L426.6,249.55 L426.6,163.55 L482,163.55 L482,249.55 Z M482,133.55 L426.6,133.55 L426.6,86.95 L458.8,86.95 C467.1,86.95 473.8,80.25 473.8,71.95 C473.8,63.65 467.1,56.95 458.8,56.95 L55.2,56.95 C46.9,56.95 40.2,63.65 40.2,71.95 C40.2,80.25 46.9,86.95 55.2,86.95 L85.4,86.95 L85.4,133.55 L30,133.55 L30,30.35 L482,30.35 L482,133.55 Z"/>
    </g>
  </g>
</svg>
