<svg xmlns="http://www.w3.org/2000/svg" width="512" height="480" viewBox="0 0 512 480">
  <g id="Page-1" fill="none" fill-rule="evenodd">
    <g id="003-rolling-machine" fill="#000" fill-rule="nonzero">
      <path id="Shape" d="M494.1,210.7 C491,206.7 487.6,203.2 484,200.1 C498.2,186.5 507.3,165.4 507.3,141.8 C507.3,132.2 505.8,122.8 503,114.1 L503,15.6 C503,7.3 496.3,0.6 488,0.6 L57.8,0.6 C49.5,0.6 42.8,7.3 42.8,15.6 L42.8,86.9 C41.5,88.6 40.3,90.5 39.1,92.4 C33.3,102.1 29.4,114 27.7,126.8 L15,126.8 C6.7,126.8 0,133.5 0,141.8 C0,150.1 6.7,156.8 15,156.8 L27.7,156.8 C29.4,169.6 33.3,181.5 39.1,191.2 C41.2,194.8 43.6,198 46.2,200.8 C43.6,203.6 41.3,206.9 39.1,210.4 C33.3,220.1 29.4,232 27.7,244.8 L15.2,244.8 C6.9,244.8 0.2,251.5 0.2,259.8 C0.2,268.1 6.9,274.8 15.2,274.8 L27.7,274.8 C29.4,287.6 33.3,299.5 39.1,309.2 C40.3,311.1 41.5,313 42.8,314.7 L42.8,464.4 C42.8,472.7 49.5,479.4 57.8,479.4 L488,479.4 C496.3,479.4 503,472.7 503,464.4 L503,306.1 C508.7,294.3 512,280.5 512,265.9 C512,245.2 505.6,225.6 494.1,210.7 Z M192.7,345.7 C204.3,346.4 213.3,357.3 213.3,370.5 C213.3,383.6 204.5,394.3 193.1,395.3 C181.6,394.3 172.6,383.1 172.6,369.4 L172.6,319 L172.6,216 L391.8,216 L391.8,315.8 L195.6,315.8 C194.5,315.8 193.5,315.8 192.5,315.9 C184.6,316.4 178.5,323 178.5,330.9 C178.6,338.7 184.8,345.2 192.7,345.7 Z M237.7,345.6 L409.9,345.6 C421.9,345.6 431.7,356.7 431.7,370.4 C431.7,384.1 421.9,395.2 409.9,395.2 L237.7,395.2 C241.3,387.7 243.3,379.3 243.3,370.4 C243.3,361.5 241.3,353.1 237.7,345.6 Z M406.8,185.9 L157.7,185.9 L117.8,185.9 C123.8,173.7 127.2,158.5 127.2,141.8 C127.2,125.1 123.7,109.9 117.8,97.7 L446.7,97.7 C463.3,97.7 477.3,117.9 477.3,141.8 C477.3,165 464.2,184.7 448.1,185.8 C447.6,185.8 447.1,185.9 446.6,185.9 L406.8,185.9 Z M117.7,215.9 L142.6,215.9 L142.6,303.9 L117.7,303.9 C123.7,291.7 127.1,276.6 127.1,259.9 C127.1,243.2 123.6,228.1 117.7,215.9 Z M72.8,30.6 L473,30.6 L473,75 C464.9,70.2 455.8,67.7 446.6,67.7 L77.7,67.7 C77.5,67.7 77.3,67.7 77,67.7 L76.9,67.7 C75.5,67.7 74.2,67.8 72.8,68 L72.8,30.6 Z M76.8,97.8 C76.9,97.8 77,97.8 77.1,97.8 C85.2,98.1 97.1,115.4 97.1,141.8 C97.1,168.2 85.3,185.5 77.1,185.8 C77,185.8 77,185.8 76.9,185.8 C70.5,185.8 61.5,174.7 58.1,156.8 L76.9,156.8 C85.2,156.8 91.9,150.1 91.9,141.8 C91.9,133.5 85.2,126.8 76.9,126.8 L58.1,126.8 C61.5,108.9 70.5,97.8 76.8,97.8 Z M58.2,274.9 L77,274.9 C85.3,274.9 92,268.2 92,259.9 C92,251.6 85.2,244.9 76.9,244.9 L58.1,244.9 C61.5,227 70.5,215.9 76.9,215.9 C77,215.9 77.1,215.9 77.2,215.9 C85.3,216.2 97.2,233.5 97.2,259.9 C97.2,286.3 85.4,303.6 77.2,303.9 C77.1,303.9 77.1,303.9 77,303.9 C70.6,303.9 61.6,292.8 58.2,274.9 Z M472.9,449.6 L72.8,449.6 L72.8,449.4 L72.8,333.6 C74.2,333.8 75.5,333.9 76.9,333.9 C77.2,333.9 77.5,333.9 77.8,333.9 L142.6,333.9 L142.6,369.4 C142.6,399 164.1,423.6 191.6,425.2 C191.9,425.2 192.2,425.2 192.4,425.2 L193.1,425.2 C193.9,425.2 194.7,425.3 195.5,425.3 L409.7,425.3 C438.2,425.3 461.5,400.7 461.5,370.5 C461.5,361.2 459.3,352.5 455.5,344.9 C461.6,343.8 467.4,341.7 472.9,338.8 L472.9,449.6 Z M474.9,295.2 C474.8,295.3 474.8,295.4 474.7,295.5 C468.5,306.9 458.8,314.7 447.9,315.6 C445.7,315.6 433.8,315.6 421.9,315.6 L421.9,215.8 L446.7,215.8 C465.9,215.8 482,238.7 482,265.9 C482,276.7 479.3,286.9 474.9,295.2 Z"/>
      <path id="Shape" d="M360.3,254.7 L207.2,254.7 C198.9,254.7 192.2,261.4 192.2,269.7 C192.2,278 199,284.7 207.2,284.7 L360.3,284.7 C368.6,284.7 375.3,278 375.3,269.7 C375.3,261.4 368.6,254.7 360.3,254.7 Z"/>
    </g>
  </g>
</svg>
