<svg xmlns="http://www.w3.org/2000/svg" width="508" height="512" viewBox="0 0 508 512">
  <g id="Page-1" fill="none" fill-rule="evenodd">
    <g id="004-sticker" fill="#000" fill-rule="nonzero">
      <path id="Shape" d="M492.5,120.7 L447.8,120.7 L447.8,74.7 C447.8,66.4 441.1,59.7 432.8,59.7 L386.8,59.7 L386.8,15 C386.8,6.7 380.1,0 371.8,0 L15.5,0 C7.2,0 0.5,6.7 0.5,15 L0.5,376.3 C0.5,384.6 7.2,391.3 15.5,391.3 L61.5,391.3 L61.5,436 C61.5,444.3 68.2,451 76.5,451 L121.2,451 L121.2,497 C121.2,505.3 127.9,512 136.2,512 L492.5,512 C500.8,512 507.5,505.3 507.5,497 L507.5,135.7 C507.5,127.4 500.8,120.7 492.5,120.7 Z M30.5,361.3 L30.5,30 L356.8,30 L356.8,74.7 L356.8,361.3 L30.5,361.3 Z M91.5,421 L91.5,391.3 L371.8,391.3 C380.1,391.3 386.8,384.6 386.8,376.3 L386.8,89.7 L417.8,89.7 L417.8,421 L91.5,421 Z M477.5,482 L151.2,482 L151.2,451 L432.8,451 C441.1,451 447.8,444.3 447.8,436 L447.8,150.7 L477.5,150.7 L477.5,482 Z"/>
      <path id="Shape" d="M193.7 85.8C153.9 85.8 121.6 118.1 121.6 157.9 121.6 197.7 153.9 230 193.7 230 233.5 230 265.8 197.7 265.8 157.9 265.8 118.1 233.5 85.8 193.7 85.8zM193.7 200C170.5 200 151.6 181.1 151.6 157.9 151.6 134.7 170.4 115.8 193.7 115.8 216.9 115.8 235.8 134.7 235.8 157.9 235.8 181.1 216.9 200 193.7 200zM290.1 265.1L97.2 265.1C88.9 265.1 82.2 271.8 82.2 280.1 82.2 288.4 88.9 295.1 97.2 295.1L290.1 295.1C298.4 295.1 305.1 288.4 305.1 280.1 305.1 271.8 298.4 265.1 290.1 265.1z"/>
    </g>
  </g>
</svg>
