<svg xmlns="http://www.w3.org/2000/svg" width="396" height="388" viewBox="0 0 396 388">
  <g id="Page-1" fill="none" fill-rule="evenodd">
    <g id="rebase-trbl" fill="#000" fill-rule="nonzero">
      <path id="Rectangle-Copy-3" d="M32,24.5 L32,363.5 L364,363.5 L364,24.5 L32,24.5 Z M32,-3.5 L364,-3.5 C379.463973,-3.5 392,9.036027 392,24.5 L392,363.5 C392,378.963973 379.463973,391.5 364,391.5 L32,391.5 C16.536027,391.5 4,378.963973 4,363.5 L4,24.5 C4,9.036027 16.536027,-3.5 32,-3.5 Z" transform="rotate(90 198 194)"/>
      <path id="Rectangle-Copy-3" d="M95.6578171,89.8421829 L95.6578171,298.842183 L300.342183,298.842183 L300.342183,89.8421829 L95.6578171,89.8421829 Z M95.6578171,61.8421829 L300.342183,61.8421829 C315.806156,61.8421829 328.342183,74.3782099 328.342183,89.8421829 L328.342183,298.842183 C328.342183,314.306156 315.806156,326.842183 300.342183,326.842183 L95.6578171,326.842183 C80.1938441,326.842183 67.6578171,314.306156 67.6578171,298.842183 L67.6578171,89.8421829 C67.6578171,74.3782099 80.1938441,61.8421829 95.6578171,61.8421829 Z" transform="rotate(90 198 194.342)"/>
    </g>
  </g>
</svg>
