<svg xmlns="http://www.w3.org/2000/svg" width="389" height="396" viewBox="0 0 389 396">
  <g id="Page-1" fill="none" fill-rule="evenodd">
    <path id="rebase-tb" fill="#000" d="M28.5,0.5 L360.5,0.5 C375.963973,0.5 388.5,13.036027 388.5,28.5 L388.5,367.5 C388.5,382.963973 375.963973,395.5 360.5,395.5 L28.5,395.5 C13.036027,395.5 0.5,382.963973 0.5,367.5 L0.5,28.5 C0.5,13.036027 13.036027,0.5 28.5,0.5 Z M28.5,72.5 L360.5,72.5 L360.5,28.5 L28.5,28.5 L28.5,72.5 Z M28.5,367.5 L360.5,367.5 L360.5,323.5 L28.5,323.5 L28.5,367.5 Z M28.5,295.5 L360.5,295.5 L360.5,101.5 L28.5,101.5 L28.5,295.5 Z"/>
  </g>
</svg>
