<svg xmlns="http://www.w3.org/2000/svg" width="395" height="388" viewBox="0 0 395 388">
  <g id="Page-1" fill="none" fill-rule="evenodd">
    <path id="rebase-lr" fill="#000" d="M31.5,-3.5 L363.5,-3.5 C378.963973,-3.5 391.5,9.036027 391.5,24.5 L391.5,363.5 C391.5,378.963973 378.963973,391.5 363.5,391.5 L31.5,391.5 C16.036027,391.5 3.5,378.963973 3.5,363.5 L3.5,24.5 C3.5,9.036027 16.036027,-3.5 31.5,-3.5 Z M31.5,68.5 L363.5,68.5 L363.5,24.5 L31.5,24.5 L31.5,68.5 Z M31.5,363.5 L363.5,363.5 L363.5,319.5 L31.5,319.5 L31.5,363.5 Z M31.5,291.5 L363.5,291.5 L363.5,97.5 L31.5,97.5 L31.5,291.5 Z" transform="rotate(90 197.5 194)"/>
  </g>
</svg>
